<?xml version="1.0" encoding="UTF-8"?>
<svg id="logo-icon" xmlns="http://www.w3.org/2000/svg" viewBox="0 0 735.49 700">
  <defs>
    <style>
      .cls-1 {
        fill: #004370;
      }

      .cls-2 {
        fill: #009b5b;
      }
    </style>
  </defs>
  <path class="cls-1" d="M211.22,441.38l-76.24,125.56c-47.17-59.02-75.52-133.7-75.94-214.96,33.33,49.99,88.81,84.29,152.18,89.4Z"/>
  <path class="cls-2" d="M138.06,242.8c0-49.87,39.91-91.38,89.74-91.38s89.78,41.51,89.78,91.38-41.56,91.38-89.78,91.38-89.74-42.36-89.74-91.38Z"/>
  <path class="cls-1" d="M411.37,361.6c-15.78,30.76-24.89,64.85-24.89,97.25,0,54,20.76,103.87,58.98,141.25,34.26,33.5,77.88,52.99,125.43,56.7-48.86,26.2-104.72,41.05-164.03,41.05-68.81,0-133.02-20-187.03-54.51l183.31-303.34c24.06-42.5,25.84-78.07,24.93-97.2-4.07-85.79-77.61-165.55-185.13-199.64C291.8,16.95,347.62,2.15,406.85,2.15c69.91,0,135.05,20.63,189.6,56.2h-1.43c-61.22,101.09-122.43,202.17-183.65,303.26Z"/>
  <path class="cls-2" d="M676.45,458.85c0,49.02-40.71,91.38-88.89,91.38s-89.74-42.36-89.74-91.38,40.71-90.58,89.74-90.58,88.89,40.71,88.89,90.58Z"/>
</svg>