<?xml version="1.0" encoding="UTF-8"?>
<svg id="Layer_1" data-name="Layer 1" xmlns="http://www.w3.org/2000/svg" viewBox="0 0 534 156">
  <defs>
    <style>
      .cls-1 {
        fill: #004370;
      }

      .cls-2 {
        fill: #009b5b;
      }
    </style>
  </defs>
  <g>
    <path class="cls-1" d="M210.41,111.45c-7.5-1.52-14.9-5.27-21.49-10.95l5.98-6.79c5.37,4.66,11.35,7.8,17.33,9.02,5.07,1.11,10.03.71,13.99-1.12,2.64-1.22,7.2-4.26,7.2-10.44,0-7.6-8.11-10.34-16.02-11.86-.71-.1-12.06-2.43-16.62-5.07-6.08-3.65-9.33-9.12-9.33-15.81,0-3.75,1.22-7.3,3.34-10.44,2.13-2.84,5.07-5.17,8.51-6.79,5.07-2.43,11.05-3.14,17.13-2.13,6.59,1.11,13.28,4.26,19.16,9.12l-5.78,6.99c-10.44-8.62-20.58-8.82-26.66-5.98-4.16,1.93-6.59,5.47-6.59,9.12,0,6.89,5.88,9.53,15.2,11.55,3.85.91,11.86,2.23,16.62,4.97,6.59,3.65,10.03,9.33,10.03,16.32,0,4.16-1.11,8.01-3.45,11.35-2.13,3.04-5.37,5.37-9.02,7.2-3.85,1.93-7.8,2.53-12.26,2.53-2.43,0-4.87-.3-7.3-.81Z"/>
    <path class="cls-1" d="M255.32,96.14v-22.71h-6.89v-8.31h6.89v-17.94h8.72v17.94h14.29v8.31h-14.29v22.5c0,3.75,3.24,7.3,6.89,7.3h7.81l2.23,8.31h-10.24c-8.51,0-15.41-6.79-15.41-15.41Z"/>
    <path class="cls-1" d="M288.77,91.68v-26.56h8.72v26.56c0,6.79,5.68,12.37,12.77,12.37s12.77-5.57,12.77-12.37v-26.56h8.72v26.56c0,5.68-2.33,10.95-6.39,14.9-4.05,3.95-9.43,5.98-15.1,5.98s-11.15-2.03-15.2-5.98c-4.05-3.95-6.28-9.22-6.28-14.9Z"/>
    <path class="cls-1" d="M381.01,37.15h8.72v74.4h-8.72v-5.37c-4.36,3.65-9.83,6.39-15.61,6.39-6.49,0-12.57-2.43-17.23-6.99-4.56-4.66-7.1-10.74-7.1-17.23s2.53-12.57,7.1-17.23c4.66-4.56,10.74-6.99,17.23-6.99,5.78,0,11.25,2.74,15.61,6.39v-33.35ZM381.01,88.34c0-8.62-6.99-15.71-15.61-15.71s-15.61,7.1-15.61,15.71,6.99,15.71,15.61,15.71,15.61-7.09,15.61-15.71Z"/>
    <path class="cls-1" d="M404.63,51.85c0-3.14,2.53-5.68,5.78-5.68s5.68,2.53,5.68,5.68-2.53,5.78-5.68,5.78-5.78-2.64-5.78-5.78ZM406.05,65.13h8.72v46.42h-8.72v-46.42Z"/>
    <path class="cls-1" d="M474.67,88.34c0,6.49-2.53,12.57-7.2,17.23-4.56,4.56-10.64,7.1-17.13,7.1s-12.57-2.53-17.23-7.1c-4.56-4.66-7.09-10.74-7.09-17.23s2.53-12.57,7.09-17.23c4.66-4.56,10.74-6.99,17.23-6.99s12.57,2.43,17.13,6.99,7.2,10.74,7.2,17.23ZM465.95,88.34c0-8.62-6.99-15.51-15.61-15.51s-15.61,6.89-15.61,15.51,6.99,15.61,15.61,15.61,15.61-6.99,15.61-15.61Z"/>
    <path class="cls-1" d="M516.23,97.87c0,2.64-.71,5.17-2.23,7.3-1.42,2.13-3.45,3.75-6.18,5.07-2.43,1.11-5.37,1.72-8.31,1.72-1.62,0-3.14-.2-4.76-.51-5.07-1.01-9.83-3.24-13.89-6.69l5.47-5.98c5.37,4.56,9.93,5.47,12.77,5.47,1.93,0,3.75-.41,5.37-1.12,1.32-.61,3.65-2.13,3.65-5.27s-2.74-5.07-9.02-6.18c-.3-.1-8.01-1.52-10.85-3.14-4.26-2.43-6.49-6.18-6.49-10.85,0-2.53.81-4.97,2.23-7.1,1.32-1.82,3.14-3.24,5.78-4.46,2.43-1.11,5.07-1.72,8.01-1.72,1.11,0,2.33.1,3.45.2,4.46.71,8.82,2.64,12.47,5.58l-5.07,5.88c-4.56-3.55-8.51-4.05-10.44-4.05-1.82,0-3.55.3-4.97,1.01-2.03,1.01-3.34,2.84-3.34,4.66,0,3.04,2.43,4.66,8.62,5.98.1,0,8.41,1.82,10.74,3.14,2.74,1.42,3.75,2.53,4.87,3.95,1.42,2.03,2.13,4.46,2.13,7.09Z"/>
  </g>
  <path class="cls-1" d="M47.78,98.24l-16.89,27.81c-10.45-13.07-16.73-29.61-16.82-47.61,7.38,11.07,19.67,18.67,33.71,19.8Z"/>
  <path class="cls-2" d="M31.58,54.26c0-11.05,8.84-20.24,19.88-20.24s19.89,9.19,19.89,20.24-9.2,20.24-19.89,20.24-19.88-9.38-19.88-20.24Z"/>
  <path class="cls-1" d="M92.11,80.57c-3.49,6.81-5.51,14.36-5.51,21.54,0,11.96,4.6,23.01,13.06,31.29,7.59,7.42,17.25,11.74,27.78,12.56-10.82,5.8-23.19,9.09-36.33,9.09-15.24,0-29.46-4.43-41.42-12.07l40.6-67.19.19-.55c3.49-6.8,5.34-14.17,5.34-20.98,0-23.34-18.08-42.51-41-44.22C65.63,4.23,77.99.96,91.11.96c15.48,0,29.91,4.57,41.99,12.45h-.32l-40.49,67.17h-.19Z"/>
  <path class="cls-2" d="M150.82,102.11c0,10.86-9.02,20.24-19.69,20.24s-19.88-9.38-19.88-20.24,9.02-20.06,19.88-20.06,19.69,9.02,19.69,20.06Z"/>
</svg>